# xmcd
#
# Track frame offsets:
#	150
#	18063
#	32733
#	53220
#	68015
#	89450
#	107183
#	129960
#	147653
#	165920
#	186748
#	204515
#	217090
#	232488
#
# Disc length: 3357 seconds
#
# Revision: 0
# Processed by: cddbd v1.5.1PL2 Copyright (c) Steve Scherf et al.
# Submitted via: EasyCDDAExtractor 9.0.0.1
#
DISCID=d10d1b0e
DTITLE=ROUPA NOVA - [roupa nova]
DYEAR=2005
DGENRE=Blues
TTITLE0=SAPATO VELHO
TTITLE1=ANJO
TTITLE2=LUMIAR
TTITLE3=SENSUAL
TTITLE4=SEGUINDO NO TREM AZUL
TTITLE5=DONA
TTITLE6=VOLTA PRA MIM
TTITLE7=PRINCESA
TTITLE8=BEM MAIOR
TTITLE9=AGORA SIM
TTITLE10=DEIXA O AMOR ACONTECER
TTITLE11=CANÇÃO DE VERÃO
TTITLE12=TUDO QUE VOCÊ PODIA SER [participação especial - sandra de sá]
TTITLE13=WHISKY A GO GO [citação - do you wanna dance]
EXTD=
EXTT0=
EXTT1=
EXTT2=
EXTT3=
EXTT4=
EXTT5=
EXTT6=
EXTT7=
EXTT8=
EXTT9=
EXTT10=
EXTT11=
EXTT12=
EXTT13=
PLAYORDER=
